<svg xmlns="http://www.w3.org/2000/svg" viewBox="0 0 9070.87 1605.64"><defs><style>.cls-1{fill:#fff;}.cls-2{fill:#4b5a6a;}</style></defs><g id="Layer_2" data-name="Layer 2"><g id="Layer_1-2" data-name="Layer 1"><path class="cls-1" d="M1638,1168.83,1290.49,1431l-1.26,1-14.07,10.61C1141,1541.43,974.45,1600,794,1600c-312,0-582.56-175.16-715.86-431.17Z"/><path class="cls-2" d="M3276,807.45a780.46,780.46,0,0,1-50.35,276.66H1891.32l370.52-276.66c0,114.32,94,207,210,207s210-92.69,210-207c0-130.43-125.05-202.87-210-207-54.88-2.69-97.39,22.86-114.78,33.63-207.06,128.12-539,402.29-596.67,450.07H50.37A780.47,780.47,0,0,1,0,807.45C0,369.72,360,14.88,804.13,14.88c308.93,0,577.16,171.7,711.86,423.56l-501.8,369c0-114.35-94-207-210.06-207s-210,92.69-210,207,94,207,210,207a213,213,0,0,0,62.69-9.37,243.46,243.46,0,0,0,46.94-21c37.07-22.15,290.35-212.82,634.3-478.07l430.7-324.62,9.61-7.25v0c134.57-100,302-159.22,483.51-159.22C2916,14.88,3276,369.72,3276,807.45Z"/><path class="cls-1" d="M3177.65,1168.83c-133.32,256-403.85,431.17-715.88,431.17-307.26,0-574.28-169.86-709.65-419.5-2.11-3.87-4.18-7.77-6.22-11.67Z"/><path class="cls-2" d="M3494.76,14.88h243.36c165.24,0,246.35,90.75,246.35,257.38V374.92c0,166.63-81.11,257.39-246.35,257.39H3660v424H3494.76Zm243.36,468.65c52.57,0,81.11-23.81,81.11-98.2V261.85c0-74.39-28.54-98.19-81.11-98.19H3660V483.53Z"/><path class="cls-2" d="M4420.11,14.88h223.83l171.25,1041.45H4650L4619.9,849.52v3H4432.13l-30,203.83H4248.86Zm180.26,696.28-73.6-514.77h-3l-72.1,514.77Z"/><path class="cls-2" d="M5132.15,809.35V749.84h156.22v71.42c0,74.38,33.05,101.16,85.63,101.16s85.62-26.78,85.62-104.14c0-86.29-33-141.34-141.2-235.07-138.2-120.51-183.27-205.31-183.27-324.34C5135.15,95.22,5220.78,0,5381.51,0s240.35,95.22,240.35,261.85V305H5465.63V251.43c0-74.38-30-102.65-82.62-102.65s-82.62,28.27-82.62,99.68c0,75.88,34.55,130.92,142.71,224.65,138.2,120.51,181.76,203.83,181.76,333.27,0,169.61-87.12,264.82-249.36,264.82S5132.15,976,5132.15,809.35Z"/><path class="cls-2" d="M5979.38,815.3V255.9C5979.38,95.22,6063.5,0,6222.73,0s243.35,95.22,243.35,255.9V366H6309.86V245.48c0-68.43-33-96.7-82.62-96.7s-82.62,28.27-82.62,96.7V827.21c0,68.43,33,95.21,82.62,95.21s82.62-26.78,82.62-95.21V668h156.22V815.3c0,160.69-84.12,255.9-243.35,255.9S5979.38,976,5979.38,815.3Z"/><path class="cls-2" d="M6963.31,14.88h223.83l171.24,1041.45H7193.14l-30-206.81v3H6975.33l-30.05,203.83H6792.06Zm180.26,696.28L7070,196.39h-3l-72.1,514.77Z"/><path class="cls-2" d="M7708.38,14.88h244.85c171.25,0,244.86,78.85,244.86,239.53v64c0,107.12-34.55,175.55-108.16,205.31v3c82.62,25.3,109.66,102.66,109.66,220.2v183c0,50.59,1.5,87.78,18,126.47H8049.37c-9-26.79-15-43.15-15-127.95V737.94c0-96.71-28.54-128-103.65-128h-57.08v446.34H7708.38ZM7933.7,461.21c61.59,0,99.15-26.78,99.15-110.09V270.78c0-74.39-25.54-107.12-84.12-107.12h-75.11V461.21Z"/><path class="cls-2" d="M8578.15,809.35V14.88h165.24V821.26c0,74.38,31.55,101.16,84.12,101.16s84.13-26.78,84.13-101.16V14.88h159.23V809.35c0,166.64-84.13,261.85-246.36,261.85S8578.15,976,8578.15,809.35Z"/><path class="cls-1" d="M3494.76,1205h92.17c62.58,0,93.3,34.42,93.3,97.63v38.94c0,63.21-30.72,97.63-93.3,97.63h-29.59V1600h-62.58Zm92.17,177.77c19.91,0,30.72-9,30.72-37.25v-46.84c0-28.22-10.81-37.25-30.72-37.25h-29.59v121.34Z"/><path class="cls-1" d="M4101.24,1205H4194c64.85,0,92.73,29.91,92.73,90.86v24.27c0,40.63-13.08,66.59-41,77.87v1.13c31.29,9.6,41.53,38.94,41.53,83.52V1552c0,19.19.57,33.29,6.83,48h-63.72c-3.41-10.16-5.69-16.37-5.69-48.54v-72.23c0-36.68-10.81-48.54-39.26-48.54h-21.62V1600h-62.58Zm85.34,169.3c23.33,0,37.55-10.16,37.55-41.76V1302c0-28.22-9.67-40.64-31.86-40.64h-28.45v112.87Z"/><path class="cls-1" d="M4712.84,1506.32V1298.64c0-63.21,33.57-99.32,95-99.32s95,36.11,95,99.32v207.68c0,63.2-33.57,99.32-95,99.32S4712.84,1569.52,4712.84,1506.32Zm127.45,4V1294.69c0-28.22-12.52-38.94-32.43-38.94s-32.43,10.72-32.43,38.94v215.58c0,28.21,12.51,38.94,32.43,38.94S4840.29,1538.48,4840.29,1510.27Z"/><path class="cls-1" d="M5331.84,1205h95.59c62.58,0,93.3,34.42,93.3,97.63v199.78c0,63.2-30.72,97.63-93.3,97.63h-95.59Zm94.45,338.6c19.91,0,31.86-10.16,31.86-38.37V1299.77c0-28.22-11.95-38.38-31.86-38.38h-31.86v282.17Z"/><path class="cls-1" d="M5947.43,1506.32V1205H6010v305.87c0,28.22,11.95,38.38,31.86,38.38s31.86-10.16,31.86-38.38V1205H6134v301.36c0,63.2-31.86,99.32-93.31,99.32S5947.43,1569.52,5947.43,1506.32Z"/><path class="cls-1" d="M6561.3,1508.57V1296.38c0-61,31.86-97.06,92.17-97.06s92.17,36.11,92.17,97.06v41.76h-59.17v-45.71c0-26-12.52-36.68-31.29-36.68s-31.29,10.72-31.29,36.68v220.66c0,26,12.51,36.12,31.29,36.12s31.29-10.16,31.29-36.12V1452.7h59.17v55.87c0,61-31.86,97.07-92.17,97.07S6561.3,1569.52,6561.3,1508.57Z"/><path class="cls-1" d="M7219,1261.39h-65.43V1205H7347v56.43h-65.43V1600H7219Z"/><path class="cls-1" d="M7764,1205h62.58v395H7764Z"/><path class="cls-1" d="M8255.58,1506.32V1298.64c0-63.21,33.57-99.32,95-99.32s95,36.11,95,99.32v207.68c0,63.2-33.57,99.32-95,99.32S8255.58,1569.52,8255.58,1506.32Zm127.44,4V1294.69c0-28.22-12.51-38.94-32.43-38.94s-32.42,10.72-32.42,38.94v215.58c0,28.21,12.51,38.94,32.42,38.94S8383,1538.48,8383,1510.27Z"/><path class="cls-1" d="M8874.58,1205h78.52L9014,1441.42h1.14V1205h55.76v395h-64.29l-75.1-288.38h-1.14V1600h-55.76Z"/><rect class="cls-1" x="3494.76" y="1104.01" width="5576.1" height="47.63"/></g></g></svg>